/* XPM */
static char * imperas_64x64_xpm[] = {
"64 64 199 2",
"  	c None",
". 	c #F29811",
"+ 	c #F39811",
"@ 	c #F39911",
"# 	c #0054A0",
"$ 	c #0056A4",
"% 	c #0055A2",
"& 	c #0055A1",
"* 	c #00549E",
"= 	c #0055A3",
"- 	c #00589E",
"; 	c #004DA8",
"> 	c #0055A0",
", 	c #00549F",
"' 	c #00539E",
") 	c #00539F",
"! 	c #0059A1",
"~ 	c #0B5BA3",
"{ 	c #88AED2",
"] 	c #89AFD2",
"^ 	c #85ACD0",
"/ 	c #0F5DA4",
"( 	c #1863A8",
"_ 	c #7BA5CC",
": 	c #BFD4E7",
"< 	c #DCE8F1",
"[ 	c #DCE7F1",
"} 	c #C7D9EA",
"| 	c #97B8D7",
"1 	c #4682B9",
"2 	c #0456A0",
"3 	c #115EA5",
"4 	c #6395C4",
"5 	c #ABC6DF",
"6 	c #D6E3EF",
"7 	c #D1E0EE",
"8 	c #A3C0DB",
"9 	c #4F87BC",
"0 	c #0556A1",
"a 	c #2068AA",
"b 	c #1C66A9",
"c 	c #236AAB",
"d 	c #8AAFD2",
"e 	c #CBDCEB",
"f 	c #DBE7F1",
"g 	c #C1D5E7",
"h 	c #95B7D6",
"i 	c #4E87BC",
"j 	c #0959A2",
"k 	c #1461A6",
"l 	c #FBFCFD",
"m 	c #FEFEFE",
"n 	c #7BA6CD",
"o 	c #5089BC",
"p 	c #E8EFF6",
"q 	c #FDFDFE",
"r 	c #C0D5E7",
"s 	c #236BAC",
"t 	c #568DBF",
"u 	c #E4EDF5",
"v 	c #1D66A9",
"w 	c #3A79B4",
"x 	c #FCFDFD",
"y 	c #9FBDDA",
"z 	c #F0F4F9",
"A 	c #FDFEFE",
"B 	c #DAE6F1",
"C 	c #4F88BC",
"D 	c #0154A0",
"E 	c #F6F9FB",
"F 	c #F7F9FB",
"G 	c #EBF2F7",
"H 	c #F9FBFC",
"I 	c #C9DAEA",
"J 	c #0C5CA3",
"K 	c #739FC9",
"L 	c #F0F5F9",
"M 	c #C2D6E8",
"N 	c #EFF4F8",
"O 	c #F8FAFC",
"P 	c #CADCEB",
"Q 	c #BAD0E5",
"R 	c #DDE8F2",
"S 	c #72A0CA",
"T 	c #FAFBFC",
"U 	c #D9E5F0",
"V 	c #C8DAEA",
"W 	c #D5E3EF",
"X 	c #EEF3F8",
"Y 	c #427FB7",
"Z 	c #A6C2DD",
"` 	c #02549F",
" .	c #1A63A8",
"..	c #ADC7DF",
"+.	c #CEDEEC",
"@.	c #3677B2",
"#.	c #0455A0",
"$.	c #01549F",
"%.	c #0A59A2",
"&.	c #6898C5",
"*.	c #D1E0ED",
"=.	c #0456A1",
"-.	c #00519A",
";.	c #3C7AB4",
">.	c #0757A1",
",.	c #0355A0",
"'.	c #0555A0",
").	c #1460A6",
"!.	c #568CBE",
"~.	c #D5E2EF",
"{.	c #C6D8E9",
"].	c #0056A1",
"^.	c #A1BFDB",
"/.	c #0657A1",
"(.	c #E5EEF5",
"_.	c #E3ECF4",
":.	c #1C65A9",
"<.	c #9DBDDA",
"[.	c #F4F8FB",
"}.	c #1A64A8",
"|.	c #0056A0",
"1.	c #1560A6",
"2.	c #FAFCFD",
"3.	c #00579F",
"4.	c #AAC6DF",
"5.	c #B6CEE3",
"6.	c #4D86BB",
"7.	c #2A70AF",
"8.	c #3476B2",
"9.	c #4C85BA",
"0.	c #FCFDFE",
"a.	c #00599C",
"b.	c #3475B1",
"c.	c #2B70AF",
"d.	c #0057A0",
"e.	c #0C5AA2",
"f.	c #E6EEF5",
"g.	c #00589C",
"h.	c #3375B1",
"i.	c #C1D4E7",
"j.	c #00529E",
"k.	c #0057A3",
"l.	c #005FA3",
"m.	c #DDE7F2",
"n.	c #0056A2",
"o.	c #ACC7DF",
"p.	c #DDE7F1",
"q.	c #0056A3",
"r.	c #B6CDE3",
"s.	c #DBE6F0",
"t.	c #0556A0",
"u.	c #D6E4EF",
"v.	c #2A6EAE",
"w.	c #F7FAFC",
"x.	c #92B4D5",
"y.	c #9BBBD8",
"z.	c #4D85BB",
"A.	c #0858A1",
"B.	c #0B5AA2",
"C.	c #F1F6F9",
"D.	c #98B8D7",
"E.	c #538ABD",
"F.	c #4380B8",
"G.	c #548BBE",
"H.	c #85ABD0",
"I.	c #5E91C1",
"J.	c #99B9D7",
"K.	c #0356A0",
"L.	c #F7F9FC",
"M.	c #1361A6",
"N.	c #548CBE",
"O.	c #9CBCDA",
"P.	c #B2CBE2",
"Q.	c #3274B1",
"R.	c #F5F8FB",
"S.	c #F3F7FA",
"T.	c #2A70AE",
"U.	c #BBD1E5",
"V.	c #ECF2F8",
"W.	c #EDF3F8",
"X.	c #A5C1DC",
"Y.	c #3374B1",
"Z.	c #02559F",
"`.	c #145FA5",
" +	c #0758A1",
".+	c #0D5BA3",
"++	c #0E5CA3",
"@+	c #3475B2",
"#+	c #5A8DBF",
"$+	c #5C8EC0",
"%+	c #568BBD",
"&+	c #0057A1",
"*+	c #0059A2",
"=+	c #00569F",
"-+	c #0057A4",
";+	c #3073B0",
">+	c #CCDCEB",
",+	c #CDDCEB",
"'+	c #CBDBEB",
"                                                                                                                                ",
"                                                                                                                                ",
"                                                                                                                                ",
"                                                                                                                                ",
"                                                                                                                                ",
"                                                                                                                                ",
"                                                                                                                                ",
"                                                                                                                                ",
"                                                                                                                                ",
"                                                                                                                                ",
". . . . . . +                                                                                                                   ",
". . . . . . @                                                                                                                   ",
". . . . . . @                                                                                                                   ",
". . . . . . @                                                                                                                   ",
". . . . . . @                                                                                                                   ",
". . . . . . @                                                                                                                   ",
"@ @ @ @ @ @ @                                                                                                                   ",
"                                                                                                                                ",
"                                                                                                                                ",
"                                                                                                                                ",
"                                    # $ $ #                 % $ &                                     & $ $ *                   ",
"# # # # # # =     - # # # # # ; & > , ' ' ) > & ,     > > # ) ' ) > > &             & # # # # # # # > ) ' ' , & & !             ",
", , , , , , =     - ~ { ] ^ / # ( _ : < [ } | 1 2 # # 3 4 5 6 [ 7 8 9 0 >           > a ] ] ] { b c d e [ f g h i j > >         ",
", , , , , , =     - k l m m n o p m m m m m m q r s t u m m m m m m q : v >         > w q m m x y z m m m m m m A B C D &       ",
", , , , , , =     - k l m m E F m m m m m m m m m G H m m m m m m m m m I J >       > w q m m m m m m m m m m m m m H K D >     ",
", , , , , , =     - k l m m m m m L : M N m m m m m m m O P Q R A m m m m S #       > w q m m m m T U V W X m m m m m F Y &     ",
", , , , , , =     - k l m m m q Z a ` `  ...m m m m m +.@.#.$.%.&.H m m m *.=.-.    > w q m m m +.;.>.,.'.).!.~.m m m m {.2 ].  ",
", , , , , , =     - k l m m m ^./.> > # & / (.m m m _.:.# & * # , <.m m m [.}.%     > w q m m x w # |.) % # # 1.7 m m m 2.@.&   ",
", , , , , , =     - k l m m m t >       3.) 4.m m m 5., ,       > 6.m m m 2.7.>     > w q m m l 8.#         > # 9.0.m m m _ &   ",
", , , , , , =     - k l m m m t >       a., ^.m m m 5.,         # b.x m m 2.c.>     > w q m m l 8.#           d.e.f.m m m ..#   ",
", , , , , , =     - k l m m m t >       g., ^.m m m 5.,         # h.x m m 2.c.>     > w q m m l 8.#           * ) i.m m m +.j.k.",
", , , , , , =     - k l m m m t >       g., ^.m m m 5.,         # h.x m m 2.c.>     > w q m m l 8.#           l.) ..m m m m.j.n.",
", , , , , , =     - k l m m m t >       g., ^.m m m 5.,         # h.x m m 2.c.>     > w q m m l 8.#             ) o.m m m p.j.q.",
", , , , , , =     - k l m m m t >       g., ^.m m m 5.,         # h.x m m 2.c.>     > w q m m l 8.#           k.) r.m m m s.j.q.",
", , , , , , =     - k l m m m t >       g., ^.m m m 5.,         # h.x m m 2.c.>     > w q m m l 8.#           > t.u.m m m g ) & ",
", , , , , , =     - k l m m m t >       g., ^.m m m 5.,         # h.x m m 2.c.>     > w q m m l 8.#           > v.w.m m m x.&   ",
", , , , , , =     - k l m m m t >       g., ^.m m m 5.,         # h.x m m 2.c.>     > w q m m l 8.#         > $.y.m m m q 9 &   ",
", , , , , , =     - k l m m m t >       g., ^.m m m 5.,         # h.x m m 2.c.>     > w q m m x z., & & > & A._ 2.m m m f B.#   ",
", , , , , , =     - k l m m m t >       g., ^.m m m 5.,         # h.x m m 2.c.>     > w q m m m C.D.E.F.G.H.*.A m m m x I.#     ",
", , , , , , =     - k l m m m t >       g., ^.m m m 5.,         # h.x m m 2.c.>     > w q m m m m m m m m m m m m m A J.K.%     ",
", , , , , , =     - k l m m m t >       g., ^.m m m 5.,         # h.x m m 2.c.>     > w q m m m m m m m m m m m m L.^ /.n.      ",
", , , , , , =     - M.[.F F w.N.>       g., O.F F F P.,         # Q.R.F F S.T.>     > w q m m q U.V.A m m m q W.X.Y.$.%         ",
", , , , , , =     - Z.`.`.`.`. +>       g.# .+`.`.`.++#         # 2 `.`.`.`.K.>     > w q m m l @+.+w #+$+%+@+.+) & &+          ",
"> > > > > > *+    =+-+-+-+-+-+-+q.        -+-+-+-+-+-+-+        % -+-+-+-+-+-+n.    > w q m m l 8.# & % & n.& & &+              ",
"                                                                                    > w q m m l 8.#                             ",
"                                                                                    > w q m m l 8.#                             ",
"                                                                                    > w q m m l 8.#                             ",
"                                                                                    > w q m m l 8.#                             ",
"                                                                                    > w q m m l 8.#                             ",
"                                                                                    > ;+>+,+,+'+c.#                             ",
"                                                                                    > ) j.j.j.j., #                             ",
"                                                                                                                                ",
"                                                                                                                                ",
"                                                                                                                                ",
"                                                                                                                                ",
"                                                                                                                                ",
"                                                                                                                                ",
"                                                                                                                                ",
"                                                                                                                                ",
"                                                                                                                                ",
"                                                                                                                                ",
"                                                                                                                                ",
"                                                                                                                                ",
"                                                                                                                                "};
